<?xml version="1.0" encoding="UTF-8"?>
<svg width="800" height="680" viewBox="0 0 800 680" fill="none"
     xmlns="http://www.w3.org/2000/svg" role="img"
     aria-label="Agent Directory Service lifecycle: Import, Discover, Build, Verify, Sync, Export, Announce, and Store">
  <defs>
    <style>@import url('https://fonts.googleapis.com/css2?family=Roboto:wght@300;400;600&amp;display=swap');</style>
    <radialGradient id="hubGlow" cx="50%" cy="50%" r="50%">
      <stop offset="0%" stop-color="#4d8fd4" stop-opacity="0.18"/>
      <stop offset="100%" stop-color="#4d8fd4" stop-opacity="0"/>
    </radialGradient>
  </defs>

  <rect width="800" height="680" fill="#0b1829"/>
  <circle cx="20" cy="20" r="1" fill="#4d8fd422"/>
  <circle cx="20" cy="60" r="1" fill="#4d8fd422"/>
  <circle cx="20" cy="100" r="1" fill="#4d8fd422"/>
  <circle cx="20" cy="140" r="1" fill="#4d8fd422"/>
  <circle cx="20" cy="180" r="1" fill="#4d8fd422"/>
  <circle cx="20" cy="220" r="1" fill="#4d8fd422"/>
  <circle cx="20" cy="260" r="1" fill="#4d8fd422"/>
  <circle cx="20" cy="300" r="1" fill="#4d8fd422"/>
  <circle cx="20" cy="340" r="1" fill="#4d8fd422"/>
  <circle cx="20" cy="380" r="1" fill="#4d8fd422"/>
  <circle cx="20" cy="420" r="1" fill="#4d8fd422"/>
  <circle cx="20" cy="460" r="1" fill="#4d8fd422"/>
  <circle cx="20" cy="500" r="1" fill="#4d8fd422"/>
  <circle cx="20" cy="540" r="1" fill="#4d8fd422"/>
  <circle cx="20" cy="580" r="1" fill="#4d8fd422"/>
  <circle cx="20" cy="620" r="1" fill="#4d8fd422"/>
  <circle cx="20" cy="660" r="1" fill="#4d8fd422"/>
  <circle cx="60" cy="20" r="1" fill="#4d8fd422"/>
  <circle cx="60" cy="60" r="1" fill="#4d8fd422"/>
  <circle cx="60" cy="100" r="1" fill="#4d8fd422"/>
  <circle cx="60" cy="140" r="1" fill="#4d8fd422"/>
  <circle cx="60" cy="180" r="1" fill="#4d8fd422"/>
  <circle cx="60" cy="220" r="1" fill="#4d8fd422"/>
  <circle cx="60" cy="260" r="1" fill="#4d8fd422"/>
  <circle cx="60" cy="300" r="1" fill="#4d8fd422"/>
  <circle cx="60" cy="340" r="1" fill="#4d8fd422"/>
  <circle cx="60" cy="380" r="1" fill="#4d8fd422"/>
  <circle cx="60" cy="420" r="1" fill="#4d8fd422"/>
  <circle cx="60" cy="460" r="1" fill="#4d8fd422"/>
  <circle cx="60" cy="500" r="1" fill="#4d8fd422"/>
  <circle cx="60" cy="540" r="1" fill="#4d8fd422"/>
  <circle cx="60" cy="580" r="1" fill="#4d8fd422"/>
  <circle cx="60" cy="620" r="1" fill="#4d8fd422"/>
  <circle cx="60" cy="660" r="1" fill="#4d8fd422"/>
  <circle cx="100" cy="20" r="1" fill="#4d8fd422"/>
  <circle cx="100" cy="60" r="1" fill="#4d8fd422"/>
  <circle cx="100" cy="100" r="1" fill="#4d8fd422"/>
  <circle cx="100" cy="140" r="1" fill="#4d8fd422"/>
  <circle cx="100" cy="180" r="1" fill="#4d8fd422"/>
  <circle cx="100" cy="220" r="1" fill="#4d8fd422"/>
  <circle cx="100" cy="260" r="1" fill="#4d8fd422"/>
  <circle cx="100" cy="300" r="1" fill="#4d8fd422"/>
  <circle cx="100" cy="340" r="1" fill="#4d8fd422"/>
  <circle cx="100" cy="380" r="1" fill="#4d8fd422"/>
  <circle cx="100" cy="420" r="1" fill="#4d8fd422"/>
  <circle cx="100" cy="460" r="1" fill="#4d8fd422"/>
  <circle cx="100" cy="500" r="1" fill="#4d8fd422"/>
  <circle cx="100" cy="540" r="1" fill="#4d8fd422"/>
  <circle cx="100" cy="580" r="1" fill="#4d8fd422"/>
  <circle cx="100" cy="620" r="1" fill="#4d8fd422"/>
  <circle cx="100" cy="660" r="1" fill="#4d8fd422"/>
  <circle cx="140" cy="20" r="1" fill="#4d8fd422"/>
  <circle cx="140" cy="60" r="1" fill="#4d8fd422"/>
  <circle cx="140" cy="100" r="1" fill="#4d8fd422"/>
  <circle cx="140" cy="140" r="1" fill="#4d8fd422"/>
  <circle cx="140" cy="180" r="1" fill="#4d8fd422"/>
  <circle cx="140" cy="220" r="1" fill="#4d8fd422"/>
  <circle cx="140" cy="260" r="1" fill="#4d8fd422"/>
  <circle cx="140" cy="300" r="1" fill="#4d8fd422"/>
  <circle cx="140" cy="340" r="1" fill="#4d8fd422"/>
  <circle cx="140" cy="380" r="1" fill="#4d8fd422"/>
  <circle cx="140" cy="420" r="1" fill="#4d8fd422"/>
  <circle cx="140" cy="460" r="1" fill="#4d8fd422"/>
  <circle cx="140" cy="500" r="1" fill="#4d8fd422"/>
  <circle cx="140" cy="540" r="1" fill="#4d8fd422"/>
  <circle cx="140" cy="580" r="1" fill="#4d8fd422"/>
  <circle cx="140" cy="620" r="1" fill="#4d8fd422"/>
  <circle cx="140" cy="660" r="1" fill="#4d8fd422"/>
  <circle cx="180" cy="20" r="1" fill="#4d8fd422"/>
  <circle cx="180" cy="60" r="1" fill="#4d8fd422"/>
  <circle cx="180" cy="100" r="1" fill="#4d8fd422"/>
  <circle cx="180" cy="140" r="1" fill="#4d8fd422"/>
  <circle cx="180" cy="180" r="1" fill="#4d8fd422"/>
  <circle cx="180" cy="220" r="1" fill="#4d8fd422"/>
  <circle cx="180" cy="260" r="1" fill="#4d8fd422"/>
  <circle cx="180" cy="300" r="1" fill="#4d8fd422"/>
  <circle cx="180" cy="340" r="1" fill="#4d8fd422"/>
  <circle cx="180" cy="380" r="1" fill="#4d8fd422"/>
  <circle cx="180" cy="420" r="1" fill="#4d8fd422"/>
  <circle cx="180" cy="460" r="1" fill="#4d8fd422"/>
  <circle cx="180" cy="500" r="1" fill="#4d8fd422"/>
  <circle cx="180" cy="540" r="1" fill="#4d8fd422"/>
  <circle cx="180" cy="580" r="1" fill="#4d8fd422"/>
  <circle cx="180" cy="620" r="1" fill="#4d8fd422"/>
  <circle cx="180" cy="660" r="1" fill="#4d8fd422"/>
  <circle cx="220" cy="20" r="1" fill="#4d8fd422"/>
  <circle cx="220" cy="60" r="1" fill="#4d8fd422"/>
  <circle cx="220" cy="100" r="1" fill="#4d8fd422"/>
  <circle cx="220" cy="140" r="1" fill="#4d8fd422"/>
  <circle cx="220" cy="180" r="1" fill="#4d8fd422"/>
  <circle cx="220" cy="220" r="1" fill="#4d8fd422"/>
  <circle cx="220" cy="260" r="1" fill="#4d8fd422"/>
  <circle cx="220" cy="300" r="1" fill="#4d8fd422"/>
  <circle cx="220" cy="340" r="1" fill="#4d8fd422"/>
  <circle cx="220" cy="380" r="1" fill="#4d8fd422"/>
  <circle cx="220" cy="420" r="1" fill="#4d8fd422"/>
  <circle cx="220" cy="460" r="1" fill="#4d8fd422"/>
  <circle cx="220" cy="500" r="1" fill="#4d8fd422"/>
  <circle cx="220" cy="540" r="1" fill="#4d8fd422"/>
  <circle cx="220" cy="580" r="1" fill="#4d8fd422"/>
  <circle cx="220" cy="620" r="1" fill="#4d8fd422"/>
  <circle cx="220" cy="660" r="1" fill="#4d8fd422"/>
  <circle cx="260" cy="20" r="1" fill="#4d8fd422"/>
  <circle cx="260" cy="60" r="1" fill="#4d8fd422"/>
  <circle cx="260" cy="100" r="1" fill="#4d8fd422"/>
  <circle cx="260" cy="140" r="1" fill="#4d8fd422"/>
  <circle cx="260" cy="180" r="1" fill="#4d8fd422"/>
  <circle cx="260" cy="220" r="1" fill="#4d8fd422"/>
  <circle cx="260" cy="260" r="1" fill="#4d8fd422"/>
  <circle cx="260" cy="300" r="1" fill="#4d8fd422"/>
  <circle cx="260" cy="340" r="1" fill="#4d8fd422"/>
  <circle cx="260" cy="380" r="1" fill="#4d8fd422"/>
  <circle cx="260" cy="420" r="1" fill="#4d8fd422"/>
  <circle cx="260" cy="460" r="1" fill="#4d8fd422"/>
  <circle cx="260" cy="500" r="1" fill="#4d8fd422"/>
  <circle cx="260" cy="540" r="1" fill="#4d8fd422"/>
  <circle cx="260" cy="580" r="1" fill="#4d8fd422"/>
  <circle cx="260" cy="620" r="1" fill="#4d8fd422"/>
  <circle cx="260" cy="660" r="1" fill="#4d8fd422"/>
  <circle cx="300" cy="20" r="1" fill="#4d8fd422"/>
  <circle cx="300" cy="60" r="1" fill="#4d8fd422"/>
  <circle cx="300" cy="100" r="1" fill="#4d8fd422"/>
  <circle cx="300" cy="140" r="1" fill="#4d8fd422"/>
  <circle cx="300" cy="180" r="1" fill="#4d8fd422"/>
  <circle cx="300" cy="220" r="1" fill="#4d8fd422"/>
  <circle cx="300" cy="260" r="1" fill="#4d8fd422"/>
  <circle cx="300" cy="300" r="1" fill="#4d8fd422"/>
  <circle cx="300" cy="340" r="1" fill="#4d8fd422"/>
  <circle cx="300" cy="380" r="1" fill="#4d8fd422"/>
  <circle cx="300" cy="420" r="1" fill="#4d8fd422"/>
  <circle cx="300" cy="460" r="1" fill="#4d8fd422"/>
  <circle cx="300" cy="500" r="1" fill="#4d8fd422"/>
  <circle cx="300" cy="540" r="1" fill="#4d8fd422"/>
  <circle cx="300" cy="580" r="1" fill="#4d8fd422"/>
  <circle cx="300" cy="620" r="1" fill="#4d8fd422"/>
  <circle cx="300" cy="660" r="1" fill="#4d8fd422"/>
  <circle cx="340" cy="20" r="1" fill="#4d8fd422"/>
  <circle cx="340" cy="60" r="1" fill="#4d8fd422"/>
  <circle cx="340" cy="100" r="1" fill="#4d8fd422"/>
  <circle cx="340" cy="140" r="1" fill="#4d8fd422"/>
  <circle cx="340" cy="180" r="1" fill="#4d8fd422"/>
  <circle cx="340" cy="220" r="1" fill="#4d8fd422"/>
  <circle cx="340" cy="260" r="1" fill="#4d8fd422"/>
  <circle cx="340" cy="300" r="1" fill="#4d8fd422"/>
  <circle cx="340" cy="340" r="1" fill="#4d8fd422"/>
  <circle cx="340" cy="380" r="1" fill="#4d8fd422"/>
  <circle cx="340" cy="420" r="1" fill="#4d8fd422"/>
  <circle cx="340" cy="460" r="1" fill="#4d8fd422"/>
  <circle cx="340" cy="500" r="1" fill="#4d8fd422"/>
  <circle cx="340" cy="540" r="1" fill="#4d8fd422"/>
  <circle cx="340" cy="580" r="1" fill="#4d8fd422"/>
  <circle cx="340" cy="620" r="1" fill="#4d8fd422"/>
  <circle cx="340" cy="660" r="1" fill="#4d8fd422"/>
  <circle cx="380" cy="20" r="1" fill="#4d8fd422"/>
  <circle cx="380" cy="60" r="1" fill="#4d8fd422"/>
  <circle cx="380" cy="100" r="1" fill="#4d8fd422"/>
  <circle cx="380" cy="140" r="1" fill="#4d8fd422"/>
  <circle cx="380" cy="180" r="1" fill="#4d8fd422"/>
  <circle cx="380" cy="220" r="1" fill="#4d8fd422"/>
  <circle cx="380" cy="260" r="1" fill="#4d8fd422"/>
  <circle cx="380" cy="300" r="1" fill="#4d8fd422"/>
  <circle cx="380" cy="340" r="1" fill="#4d8fd422"/>
  <circle cx="380" cy="380" r="1" fill="#4d8fd422"/>
  <circle cx="380" cy="420" r="1" fill="#4d8fd422"/>
  <circle cx="380" cy="460" r="1" fill="#4d8fd422"/>
  <circle cx="380" cy="500" r="1" fill="#4d8fd422"/>
  <circle cx="380" cy="540" r="1" fill="#4d8fd422"/>
  <circle cx="380" cy="580" r="1" fill="#4d8fd422"/>
  <circle cx="380" cy="620" r="1" fill="#4d8fd422"/>
  <circle cx="380" cy="660" r="1" fill="#4d8fd422"/>
  <circle cx="420" cy="20" r="1" fill="#4d8fd422"/>
  <circle cx="420" cy="60" r="1" fill="#4d8fd422"/>
  <circle cx="420" cy="100" r="1" fill="#4d8fd422"/>
  <circle cx="420" cy="140" r="1" fill="#4d8fd422"/>
  <circle cx="420" cy="180" r="1" fill="#4d8fd422"/>
  <circle cx="420" cy="220" r="1" fill="#4d8fd422"/>
  <circle cx="420" cy="260" r="1" fill="#4d8fd422"/>
  <circle cx="420" cy="300" r="1" fill="#4d8fd422"/>
  <circle cx="420" cy="340" r="1" fill="#4d8fd422"/>
  <circle cx="420" cy="380" r="1" fill="#4d8fd422"/>
  <circle cx="420" cy="420" r="1" fill="#4d8fd422"/>
  <circle cx="420" cy="460" r="1" fill="#4d8fd422"/>
  <circle cx="420" cy="500" r="1" fill="#4d8fd422"/>
  <circle cx="420" cy="540" r="1" fill="#4d8fd422"/>
  <circle cx="420" cy="580" r="1" fill="#4d8fd422"/>
  <circle cx="420" cy="620" r="1" fill="#4d8fd422"/>
  <circle cx="420" cy="660" r="1" fill="#4d8fd422"/>
  <circle cx="460" cy="20" r="1" fill="#4d8fd422"/>
  <circle cx="460" cy="60" r="1" fill="#4d8fd422"/>
  <circle cx="460" cy="100" r="1" fill="#4d8fd422"/>
  <circle cx="460" cy="140" r="1" fill="#4d8fd422"/>
  <circle cx="460" cy="180" r="1" fill="#4d8fd422"/>
  <circle cx="460" cy="220" r="1" fill="#4d8fd422"/>
  <circle cx="460" cy="260" r="1" fill="#4d8fd422"/>
  <circle cx="460" cy="300" r="1" fill="#4d8fd422"/>
  <circle cx="460" cy="340" r="1" fill="#4d8fd422"/>
  <circle cx="460" cy="380" r="1" fill="#4d8fd422"/>
  <circle cx="460" cy="420" r="1" fill="#4d8fd422"/>
  <circle cx="460" cy="460" r="1" fill="#4d8fd422"/>
  <circle cx="460" cy="500" r="1" fill="#4d8fd422"/>
  <circle cx="460" cy="540" r="1" fill="#4d8fd422"/>
  <circle cx="460" cy="580" r="1" fill="#4d8fd422"/>
  <circle cx="460" cy="620" r="1" fill="#4d8fd422"/>
  <circle cx="460" cy="660" r="1" fill="#4d8fd422"/>
  <circle cx="500" cy="20" r="1" fill="#4d8fd422"/>
  <circle cx="500" cy="60" r="1" fill="#4d8fd422"/>
  <circle cx="500" cy="100" r="1" fill="#4d8fd422"/>
  <circle cx="500" cy="140" r="1" fill="#4d8fd422"/>
  <circle cx="500" cy="180" r="1" fill="#4d8fd422"/>
  <circle cx="500" cy="220" r="1" fill="#4d8fd422"/>
  <circle cx="500" cy="260" r="1" fill="#4d8fd422"/>
  <circle cx="500" cy="300" r="1" fill="#4d8fd422"/>
  <circle cx="500" cy="340" r="1" fill="#4d8fd422"/>
  <circle cx="500" cy="380" r="1" fill="#4d8fd422"/>
  <circle cx="500" cy="420" r="1" fill="#4d8fd422"/>
  <circle cx="500" cy="460" r="1" fill="#4d8fd422"/>
  <circle cx="500" cy="500" r="1" fill="#4d8fd422"/>
  <circle cx="500" cy="540" r="1" fill="#4d8fd422"/>
  <circle cx="500" cy="580" r="1" fill="#4d8fd422"/>
  <circle cx="500" cy="620" r="1" fill="#4d8fd422"/>
  <circle cx="500" cy="660" r="1" fill="#4d8fd422"/>
  <circle cx="540" cy="20" r="1" fill="#4d8fd422"/>
  <circle cx="540" cy="60" r="1" fill="#4d8fd422"/>
  <circle cx="540" cy="100" r="1" fill="#4d8fd422"/>
  <circle cx="540" cy="140" r="1" fill="#4d8fd422"/>
  <circle cx="540" cy="180" r="1" fill="#4d8fd422"/>
  <circle cx="540" cy="220" r="1" fill="#4d8fd422"/>
  <circle cx="540" cy="260" r="1" fill="#4d8fd422"/>
  <circle cx="540" cy="300" r="1" fill="#4d8fd422"/>
  <circle cx="540" cy="340" r="1" fill="#4d8fd422"/>
  <circle cx="540" cy="380" r="1" fill="#4d8fd422"/>
  <circle cx="540" cy="420" r="1" fill="#4d8fd422"/>
  <circle cx="540" cy="460" r="1" fill="#4d8fd422"/>
  <circle cx="540" cy="500" r="1" fill="#4d8fd422"/>
  <circle cx="540" cy="540" r="1" fill="#4d8fd422"/>
  <circle cx="540" cy="580" r="1" fill="#4d8fd422"/>
  <circle cx="540" cy="620" r="1" fill="#4d8fd422"/>
  <circle cx="540" cy="660" r="1" fill="#4d8fd422"/>
  <circle cx="580" cy="20" r="1" fill="#4d8fd422"/>
  <circle cx="580" cy="60" r="1" fill="#4d8fd422"/>
  <circle cx="580" cy="100" r="1" fill="#4d8fd422"/>
  <circle cx="580" cy="140" r="1" fill="#4d8fd422"/>
  <circle cx="580" cy="180" r="1" fill="#4d8fd422"/>
  <circle cx="580" cy="220" r="1" fill="#4d8fd422"/>
  <circle cx="580" cy="260" r="1" fill="#4d8fd422"/>
  <circle cx="580" cy="300" r="1" fill="#4d8fd422"/>
  <circle cx="580" cy="340" r="1" fill="#4d8fd422"/>
  <circle cx="580" cy="380" r="1" fill="#4d8fd422"/>
  <circle cx="580" cy="420" r="1" fill="#4d8fd422"/>
  <circle cx="580" cy="460" r="1" fill="#4d8fd422"/>
  <circle cx="580" cy="500" r="1" fill="#4d8fd422"/>
  <circle cx="580" cy="540" r="1" fill="#4d8fd422"/>
  <circle cx="580" cy="580" r="1" fill="#4d8fd422"/>
  <circle cx="580" cy="620" r="1" fill="#4d8fd422"/>
  <circle cx="580" cy="660" r="1" fill="#4d8fd422"/>
  <circle cx="620" cy="20" r="1" fill="#4d8fd422"/>
  <circle cx="620" cy="60" r="1" fill="#4d8fd422"/>
  <circle cx="620" cy="100" r="1" fill="#4d8fd422"/>
  <circle cx="620" cy="140" r="1" fill="#4d8fd422"/>
  <circle cx="620" cy="180" r="1" fill="#4d8fd422"/>
  <circle cx="620" cy="220" r="1" fill="#4d8fd422"/>
  <circle cx="620" cy="260" r="1" fill="#4d8fd422"/>
  <circle cx="620" cy="300" r="1" fill="#4d8fd422"/>
  <circle cx="620" cy="340" r="1" fill="#4d8fd422"/>
  <circle cx="620" cy="380" r="1" fill="#4d8fd422"/>
  <circle cx="620" cy="420" r="1" fill="#4d8fd422"/>
  <circle cx="620" cy="460" r="1" fill="#4d8fd422"/>
  <circle cx="620" cy="500" r="1" fill="#4d8fd422"/>
  <circle cx="620" cy="540" r="1" fill="#4d8fd422"/>
  <circle cx="620" cy="580" r="1" fill="#4d8fd422"/>
  <circle cx="620" cy="620" r="1" fill="#4d8fd422"/>
  <circle cx="620" cy="660" r="1" fill="#4d8fd422"/>
  <circle cx="660" cy="20" r="1" fill="#4d8fd422"/>
  <circle cx="660" cy="60" r="1" fill="#4d8fd422"/>
  <circle cx="660" cy="100" r="1" fill="#4d8fd422"/>
  <circle cx="660" cy="140" r="1" fill="#4d8fd422"/>
  <circle cx="660" cy="180" r="1" fill="#4d8fd422"/>
  <circle cx="660" cy="220" r="1" fill="#4d8fd422"/>
  <circle cx="660" cy="260" r="1" fill="#4d8fd422"/>
  <circle cx="660" cy="300" r="1" fill="#4d8fd422"/>
  <circle cx="660" cy="340" r="1" fill="#4d8fd422"/>
  <circle cx="660" cy="380" r="1" fill="#4d8fd422"/>
  <circle cx="660" cy="420" r="1" fill="#4d8fd422"/>
  <circle cx="660" cy="460" r="1" fill="#4d8fd422"/>
  <circle cx="660" cy="500" r="1" fill="#4d8fd422"/>
  <circle cx="660" cy="540" r="1" fill="#4d8fd422"/>
  <circle cx="660" cy="580" r="1" fill="#4d8fd422"/>
  <circle cx="660" cy="620" r="1" fill="#4d8fd422"/>
  <circle cx="660" cy="660" r="1" fill="#4d8fd422"/>
  <circle cx="700" cy="20" r="1" fill="#4d8fd422"/>
  <circle cx="700" cy="60" r="1" fill="#4d8fd422"/>
  <circle cx="700" cy="100" r="1" fill="#4d8fd422"/>
  <circle cx="700" cy="140" r="1" fill="#4d8fd422"/>
  <circle cx="700" cy="180" r="1" fill="#4d8fd422"/>
  <circle cx="700" cy="220" r="1" fill="#4d8fd422"/>
  <circle cx="700" cy="260" r="1" fill="#4d8fd422"/>
  <circle cx="700" cy="300" r="1" fill="#4d8fd422"/>
  <circle cx="700" cy="340" r="1" fill="#4d8fd422"/>
  <circle cx="700" cy="380" r="1" fill="#4d8fd422"/>
  <circle cx="700" cy="420" r="1" fill="#4d8fd422"/>
  <circle cx="700" cy="460" r="1" fill="#4d8fd422"/>
  <circle cx="700" cy="500" r="1" fill="#4d8fd422"/>
  <circle cx="700" cy="540" r="1" fill="#4d8fd422"/>
  <circle cx="700" cy="580" r="1" fill="#4d8fd422"/>
  <circle cx="700" cy="620" r="1" fill="#4d8fd422"/>
  <circle cx="700" cy="660" r="1" fill="#4d8fd422"/>
  <circle cx="740" cy="20" r="1" fill="#4d8fd422"/>
  <circle cx="740" cy="60" r="1" fill="#4d8fd422"/>
  <circle cx="740" cy="100" r="1" fill="#4d8fd422"/>
  <circle cx="740" cy="140" r="1" fill="#4d8fd422"/>
  <circle cx="740" cy="180" r="1" fill="#4d8fd422"/>
  <circle cx="740" cy="220" r="1" fill="#4d8fd422"/>
  <circle cx="740" cy="260" r="1" fill="#4d8fd422"/>
  <circle cx="740" cy="300" r="1" fill="#4d8fd422"/>
  <circle cx="740" cy="340" r="1" fill="#4d8fd422"/>
  <circle cx="740" cy="380" r="1" fill="#4d8fd422"/>
  <circle cx="740" cy="420" r="1" fill="#4d8fd422"/>
  <circle cx="740" cy="460" r="1" fill="#4d8fd422"/>
  <circle cx="740" cy="500" r="1" fill="#4d8fd422"/>
  <circle cx="740" cy="540" r="1" fill="#4d8fd422"/>
  <circle cx="740" cy="580" r="1" fill="#4d8fd422"/>
  <circle cx="740" cy="620" r="1" fill="#4d8fd422"/>
  <circle cx="740" cy="660" r="1" fill="#4d8fd422"/>
  <circle cx="780" cy="20" r="1" fill="#4d8fd422"/>
  <circle cx="780" cy="60" r="1" fill="#4d8fd422"/>
  <circle cx="780" cy="100" r="1" fill="#4d8fd422"/>
  <circle cx="780" cy="140" r="1" fill="#4d8fd422"/>
  <circle cx="780" cy="180" r="1" fill="#4d8fd422"/>
  <circle cx="780" cy="220" r="1" fill="#4d8fd422"/>
  <circle cx="780" cy="260" r="1" fill="#4d8fd422"/>
  <circle cx="780" cy="300" r="1" fill="#4d8fd422"/>
  <circle cx="780" cy="340" r="1" fill="#4d8fd422"/>
  <circle cx="780" cy="380" r="1" fill="#4d8fd422"/>
  <circle cx="780" cy="420" r="1" fill="#4d8fd422"/>
  <circle cx="780" cy="460" r="1" fill="#4d8fd422"/>
  <circle cx="780" cy="500" r="1" fill="#4d8fd422"/>
  <circle cx="780" cy="540" r="1" fill="#4d8fd422"/>
  <circle cx="780" cy="580" r="1" fill="#4d8fd422"/>
  <circle cx="780" cy="620" r="1" fill="#4d8fd422"/>
  <circle cx="780" cy="660" r="1" fill="#4d8fd422"/>
  <circle cx="400" cy="340" r="310" fill="url(#hubGlow)"/>
  <circle cx="400" cy="340" r="215" fill="none" stroke="#4d8fd428" stroke-width="1" stroke-dasharray="5 9"/>
  <line x1="400" y1="340" x2="400.00" y2="125.00" stroke="#4d8fd422" stroke-width="1"/>
  <line x1="400.00" y1="125.00" x2="552.03" y2="187.97" stroke="#4d8fd418" stroke-width="0.8" stroke-dasharray="3 7"/>
  <line x1="400" y1="340" x2="552.03" y2="187.97" stroke="#4d8fd422" stroke-width="1"/>
  <line x1="552.03" y1="187.97" x2="615.00" y2="340.00" stroke="#4d8fd418" stroke-width="0.8" stroke-dasharray="3 7"/>
  <line x1="400" y1="340" x2="615.00" y2="340.00" stroke="#4d8fd422" stroke-width="1"/>
  <line x1="615.00" y1="340.00" x2="552.03" y2="492.03" stroke="#4d8fd418" stroke-width="0.8" stroke-dasharray="3 7"/>
  <line x1="400" y1="340" x2="552.03" y2="492.03" stroke="#4d8fd422" stroke-width="1"/>
  <line x1="552.03" y1="492.03" x2="400.00" y2="555.00" stroke="#4d8fd418" stroke-width="0.8" stroke-dasharray="3 7"/>
  <line x1="400" y1="340" x2="400.00" y2="555.00" stroke="#4d8fd422" stroke-width="1"/>
  <line x1="400.00" y1="555.00" x2="247.97" y2="492.03" stroke="#4d8fd418" stroke-width="0.8" stroke-dasharray="3 7"/>
  <line x1="400" y1="340" x2="247.97" y2="492.03" stroke="#4d8fd422" stroke-width="1"/>
  <line x1="247.97" y1="492.03" x2="185.00" y2="340.00" stroke="#4d8fd418" stroke-width="0.8" stroke-dasharray="3 7"/>
  <line x1="400" y1="340" x2="185.00" y2="340.00" stroke="#4d8fd422" stroke-width="1"/>
  <line x1="185.00" y1="340.00" x2="247.97" y2="187.97" stroke="#4d8fd418" stroke-width="0.8" stroke-dasharray="3 7"/>
  <line x1="400" y1="340" x2="247.97" y2="187.97" stroke="#4d8fd422" stroke-width="1"/>
  <line x1="247.97" y1="187.97" x2="400.00" y2="125.00" stroke="#4d8fd418" stroke-width="0.8" stroke-dasharray="3 7"/>
  <circle cx="400" cy="340" r="60" fill="url(#hubGlow)"/>
  <circle cx="400" cy="340" r="50" fill="#0b1829" stroke="#4d8fd455" stroke-width="1.5"/>
  <circle cx="400" cy="340" r="54" fill="none" stroke="#4d8fd420" stroke-width="8"/>
  <text x="400" y="332" text-anchor="middle" fill="#ffffff" font-family="Roboto, sans-serif" font-size="10" font-weight="500">AGENT</text>
  <text x="400" y="345" text-anchor="middle" fill="#ffffff" font-family="Roboto, sans-serif" font-size="10" font-weight="500">DIRECTORY</text>
  <text x="400" y="358" text-anchor="middle" fill="#f0a830" font-family="Roboto, sans-serif" font-size="8">SERVICE</text>
  
    <g>
      <circle cx="400.00" cy="125.00" r="36" fill="#0b1829"/>
      <circle cx="400.00" cy="125.00" r="36" fill="none" stroke="#4d8fd444" stroke-width="1"/>
      <g transform="translate(391.00,118.00) scale(0.7500)"
         fill="none" stroke="rgba(255,255,255,0.55)" stroke-width="1.8" stroke-linecap="round" stroke-linejoin="round">
        <path d="M12 17V3"/><path d="m6 11 6 6 6-6"/><path d="M19 21H5"/>
      </g>
      <text x="400.00" y="61.00"
            text-anchor="middle"
            fill="rgba(255,255,255,0.65)"
            font-family="Roboto, sans-serif" font-size="11" letter-spacing="0.04em">Import</text>
    </g>
  
    <g>
      <circle cx="552.03" cy="187.97" r="36" fill="#0b1829"/>
      <circle cx="552.03" cy="187.97" r="36" fill="none" stroke="#4d8fd444" stroke-width="1"/>
      <g transform="translate(543.03,180.97) scale(0.7500)"
         fill="none" stroke="rgba(255,255,255,0.55)" stroke-width="1.8" stroke-linecap="round" stroke-linejoin="round">
        <circle cx="11" cy="11" r="8"/><path d="m21 21-4.3-4.3"/>
      </g>
      <text x="604.11" y="143.89"
            text-anchor="start"
            fill="rgba(255,255,255,0.65)"
            font-family="Roboto, sans-serif" font-size="11" letter-spacing="0.04em">Discover</text>
    </g>
  
    <g>
      <circle cx="615.00" cy="340.00" r="36" fill="#0b1829"/>
      <circle cx="615.00" cy="340.00" r="36" fill="none" stroke="#4d8fd444" stroke-width="1"/>
      <g transform="translate(606.00,333.00) scale(0.7500)"
         fill="none" stroke="rgba(255,255,255,0.55)" stroke-width="1.8" stroke-linecap="round" stroke-linejoin="round">
        <path d="M14.7 6.3a1 1 0 0 0 0 1.4l1.6 1.6a1 1 0 0 0 1.4 0l3.77-3.77a6 6 0 0 1-7.94 7.94l-6.91 6.91a2.12 2.12 0 0 1-3-3l6.91-6.91a6 6 0 0 1 7.94-7.94l-3.76 3.76z"/>
      </g>
      <text x="687.00" y="344.00"
            text-anchor="start"
            fill="rgba(255,255,255,0.65)"
            font-family="Roboto, sans-serif" font-size="11" letter-spacing="0.04em">Build</text>
    </g>
  
    <g>
      <circle cx="552.03" cy="492.03" r="36" fill="#0b1829"/>
      <circle cx="552.03" cy="492.03" r="36" fill="none" stroke="#4d8fd444" stroke-width="1"/>
      <g transform="translate(543.03,485.03) scale(0.7500)"
         fill="none" stroke="rgba(255,255,255,0.55)" stroke-width="1.8" stroke-linecap="round" stroke-linejoin="round">
        <path d="M20 6 9 17l-5-5"/>
      </g>
      <text x="604.11" y="544.11"
            text-anchor="start"
            fill="rgba(255,255,255,0.65)"
            font-family="Roboto, sans-serif" font-size="11" letter-spacing="0.04em">Verify</text>
    </g>
  
    <g>
      <circle cx="400.00" cy="555.00" r="36" fill="#0b1829"/>
      <circle cx="400.00" cy="555.00" r="36" fill="none" stroke="#4d8fd444" stroke-width="1"/>
      <g transform="translate(391.00,548.00) scale(0.7500)"
         fill="none" stroke="rgba(255,255,255,0.55)" stroke-width="1.8" stroke-linecap="round" stroke-linejoin="round">
        <path d="m2 9 3-3 3 3"/><path d="M13 18H7a2 2 0 0 1-2-2V6"/><path d="m22 15-3 3-3-3"/><path d="M11 6h6a2 2 0 0 1 2 2v10"/>
      </g>
      <text x="400.00" y="627.00"
            text-anchor="end"
            fill="rgba(255,255,255,0.65)"
            font-family="Roboto, sans-serif" font-size="11" letter-spacing="0.04em">Sync</text>
    </g>
  
    <g>
      <circle cx="247.97" cy="492.03" r="36" fill="#0b1829"/>
      <circle cx="247.97" cy="492.03" r="36" fill="none" stroke="#4d8fd444" stroke-width="1"/>
      <g transform="translate(238.97,485.03) scale(0.7500)"
         fill="none" stroke="rgba(255,255,255,0.55)" stroke-width="1.8" stroke-linecap="round" stroke-linejoin="round">
        <path d="m18 9-6-6-6 6"/><path d="M12 3v14"/><path d="M5 21h14"/>
      </g>
      <text x="195.89" y="544.11"
            text-anchor="end"
            fill="rgba(255,255,255,0.65)"
            font-family="Roboto, sans-serif" font-size="11" letter-spacing="0.04em">Export</text>
    </g>
  
    <g>
      <circle cx="185.00" cy="340.00" r="36" fill="#0b1829"/>
      <circle cx="185.00" cy="340.00" r="36" fill="none" stroke="#4d8fd444" stroke-width="1"/>
      <g transform="translate(176.00,333.00) scale(0.7500)"
         fill="none" stroke="rgba(255,255,255,0.55)" stroke-width="1.8" stroke-linecap="round" stroke-linejoin="round">
        <path d="m3 11 19-9-9 19-2-8-8-2z"/>
      </g>
      <text x="113.00" y="344.00"
            text-anchor="end"
            fill="rgba(255,255,255,0.65)"
            font-family="Roboto, sans-serif" font-size="11" letter-spacing="0.04em">Announce</text>
    </g>
  
    <g>
      <circle cx="247.97" cy="187.97" r="36" fill="#0b1829"/>
      <circle cx="247.97" cy="187.97" r="36" fill="none" stroke="#4d8fd444" stroke-width="1"/>
      <g transform="translate(238.97,180.97) scale(0.7500)"
         fill="none" stroke="rgba(255,255,255,0.55)" stroke-width="1.8" stroke-linecap="round" stroke-linejoin="round">
        <rect width="20" height="5" x="2" y="3" rx="1"/><path d="M4 8v11a2 2 0 0 0 2 2h12a2 2 0 0 0 2-2V8"/><path d="M10 12h4"/>
      </g>
      <text x="195.89" y="143.89"
            text-anchor="end"
            fill="rgba(255,255,255,0.65)"
            font-family="Roboto, sans-serif" font-size="11" letter-spacing="0.04em">Store</text>
    </g>
</svg>